<svg viewBox="0 0 211.405 175.066" xml:space="preserve" xmlns="http://www.w3.org/2000/svg"><path d="M209.647 20.455a4.006 4.006 0 0 0-4.658.123c-1.795 1.361-4.717 2.441-7.862 3.273 8.19-9.175 8.366-15.302 8.278-16.713a4 4 0 0 0-6.344-2.984c-9.21 6.696-18.386 8.11-23.844 8.252C166.843 4.392 155.963 0 144.39 0c-24.783 0-44.945 20.432-44.945 45.545 0 2.158.15 4.316.451 6.451-42.951-.486-77.83-41.64-78.19-42.07a4 4 0 0 0-6.537.564c-12.36 21.444-4.09 40.278 3.471 51.06-1.338-.712-2.422-1.415-3.068-1.892a4.004 4.004 0 0 0-4.154-.38 4.004 4.004 0 0 0-2.235 3.524C8.848 83.234 18.684 94.94 27.93 101.41a4.033 4.033 0 0 0-3.34 1.272 4.002 4.002 0 0 0-.884 3.876c6.387 20.909 22.072 28.012 32.053 30.422-20.522 15.975-50.72 10.834-51.053 10.776a4.001 4.001 0 0 0-3.133 7.117c21.66 16.531 47.566 20.193 66.281 20.193 14.155-.002 24.2-2.098 25.16-2.306 94.791-22.463 97.46-109.292 97.243-123.522 17.794-16.549 20.576-22.852 21.005-24.41a4.002 4.002 0 0 0-1.615-4.373zm-26.152 24.14a4.007 4.007 0 0 0-1.282 3.211c.252 3.842 5.1 94.387-90.968 117.153-.436.092-38.623 8.06-71.729-8.34 13.987-.389 34.043-4.053 48.016-19.74a4 4 0 0 0-2.986-6.66h-.041c-.2.127-21.206-.024-30.82-20.006 3.872.219 8.648-.02 12.45-1.772a4 4 0 0 0-.851-7.547c-1.076-.226-24.459-5.455-27.73-30.964 3.548 1.55 8.085 2.82 12.577 2.134a3.998 3.998 0 0 0 3.243-2.84 4.005 4.005 0 0 0-1.219-4.138c-1-.871-22.961-20.389-12.549-45.559C30.91 31.387 64.391 62.21 104.954 59.88a4.004 4.004 0 0 0 3.648-4.969 38.518 38.518 0 0 1-1.158-9.365C107.444 24.842 124.018 8 144.389 8c9.965 0 19.313 3.976 26.317 11.2a4 4 0 0 0 2.803 1.214c4.238.058 11.208-.44 19.08-3.596-2.272 2.826-5.608 6.217-10.516 10.07a4.003 4.003 0 0 0-1.254 4.604c.644 1.646 2.307 2.686 4.045 2.53.931-.075 5.685-.495 11.057-1.657-2.926 3.156-6.938 7.182-12.426 12.23z" fill="#ffffff" class="fill-000000"></path></svg>