<svg version="1.1" xmlns="http://www.w3.org/2000/svg" viewBox="-228.2 -1366.325 7577.376555902441 2353.65"><desc>Created with Snap</desc><defs></defs><g><rect x="-228.2" y="-1366.325" width="7577.376555902441" height="2353.65" fill="#72d5ed" style=""></rect><g transform="matrix(2.6623,0,0,2.6623,5218.3331,-1121.1555)"><g><path d="M198.5,26.7c-12,16.2-26.1,47.4-31.5,69.7c-2.3,9.5-4.8,30-4.8,38.9c0,16.1,3.9,46.5,6.2,49c0.4,0.4,6.6,1.5,13.8,2.2   c48.8,5.3,102.2,29,114.2,50.9c2.8,5,3.1,6.4,3.1,15.4c0,10.5-1.5,16.5-6.5,26.9c-3.2,6.7-11,13.4-21.6,18.7   c-6.5,3.2-8.7,3.9-16.8,4.2c-9,0.5-9.7,0.4-15.4-2.7c-11-5.8-23.1-16.9-33.9-31.4c-5.6-7.4-7.6-10.3-14.1-20.5   c-5.9-9.5-18.4-36-22-47.2l-4-11.7h-8.6c-32.9,0-70.8,11.5-98.3,29.8C41.7,230.2,15,253.6,15,257c0,7.8,17,44.7,28.3,61.3   c8,11.9,26.3,31.7,36.4,39.6c13.1,10.1,36.9,24.5,40.6,24.5c0.5,0,4.4-3.5,8.6-7.9c9.4-9.6,31.3-27,44.8-35.6   c29-18.4,56.4-27,71.6-22.4c9.9,2.9,19.5,12.5,26.8,26.8c2.9,5.6,3.2,7.2,3.1,15.7c-0.1,9.4-2.2,20-5.2,26.1   c-2.7,5.4-10.7,12.8-16.4,15c-14.1,5.6-36.1,7.6-59.4,5.4c-17.1-1.7-43.2-7.2-59.8-12.9l-12.7-4.4l-2.2,2.6   c-7.8,9.4-21.9,33.1-27.1,45.8c-10.2,24.7-14,44.1-14.1,73.2c0,12,0.5,24,1.4,29.3l1.4,9.1l8.8,3.2c17.4,6.4,43.1,11.6,63.6,13   c8.7,0.6,28.9-0.8,40.9-3c10.7-2,32.8-9,43.4-13.8c9-4.2,8.7-3.3,6.9-16c-0.6-4.3-1-17.2-1-28.7c0-31.1,3.5-53.6,11.3-73.1   c6.5-16.2,11.4-22.5,21.4-27.8c8-4.3,31.6-3.9,40.5,0.7c6.8,3.4,19.3,16.4,23.3,24.1c0.9,1.8,2.2,6.4,2.8,10.2   c0.9,5.8,0.8,8-0.5,12.8c-2.1,7-6.4,15.7-12.4,25c-13.4,20.7-44.4,49.7-68.8,64.3l-10.2,6.2l0.6,4.3c0.9,5.7,8,26.8,12.6,37.3   c11.5,26.1,30.1,49.7,54.4,68.9c12.9,10.2,28.9,20.8,31.6,20.8s18.7-10.5,31.6-20.8c25.2-19.8,43.4-43.4,55.3-71.3   c4.7-11,10.7-29,11.7-34.9l0.6-4.3l-10.2-6.2c-24.4-14.6-55.4-43.6-68.8-64.3c-6.1-9.4-10.3-18.1-12.4-25c-1.4-4.8-1.5-7-0.5-12.8   c0.6-3.9,1.9-8.5,2.8-10.2c3.8-7.4,13.7-18,21.9-23.4c5.8-3.9,28-5.9,37-3.4c5.7,1.7,13.4,7.2,17.7,12.9   c7.8,10.5,14.9,32.6,18.1,56.7c1.9,14.3,2.3,50.1,0.6,61.9c-1.8,12.6-2.1,11.8,7,16c10.5,4.8,32.6,11.8,43.3,13.8   c12,2.2,32.2,3.7,40.9,3c20.5-1.5,46.1-6.7,63.6-13l8.8-3.2l1.4-9.1c0.7-4.9,1.4-17.6,1.4-28.3c0-28.3-3.1-46-12.5-70.3   c-5.8-15.2-22.2-43.2-29-49.6l-2.6-2.5l-12.3,4.3c-42.6,14.7-92.6,17.8-118.9,7.4c-5.6-2.2-13.7-9.6-16.4-15   c-3-6.1-5.1-16.7-5.2-26.1c-0.1-8.5,0.2-10,3.1-15.7c7.3-14.3,16.9-23.9,26.8-26.8c15.1-4.5,42.8,4.2,71.4,22.3   c13.7,8.7,35.6,26.1,45,35.7c4.2,4.4,8,7.9,8.6,7.9c3.7,0,27.4-14.4,40.6-24.5c10.1-7.8,28.4-27.7,36.4-39.6   C668,301.7,685,264.8,685,257c0-3.4-26.7-26.8-43.2-37.9c-27.6-18.4-65.4-29.8-98.3-29.8h-8.6l-3.8,11.2   c-4.4,13.3-16.1,37.6-24.4,50.9c-14.5,23.3-31,40.8-45.8,48.6c-5.7,3.1-6.5,3.2-15.4,2.7c-8.1-0.3-10.3-0.9-16.8-4.2   c-10.6-5.3-18.4-12-21.6-18.7c-5-10.4-6.5-16.4-6.5-26.9c0-9.1,0.3-10.4,3.1-15.4c12-21.9,65.3-45.6,114.2-50.9   c7.2-0.7,13.4-1.8,13.9-2.3c0.4-0.4,1.8-6.4,3-13.3c2.9-16.9,3.2-47.4,0.6-62.6c-3.1-17.7-8.6-34.2-17.3-52.2   c-8.2-17-17-31.5-19.6-32.6c-2.4-0.9-21.1,1.7-35.8,5c-40.3,9.2-70.2,26.3-98,55.9c-13.3,14.1-12.9,12.8-5.8,23.9   c3.2,5.1,6.4,10,6.9,10.9c6.6,10.7,21.1,47.5,24.8,62.9c2.4,10,4.1,26.5,3.7,35.2c-0.7,15.5-7.4,25.5-21.9,32.4   c-7.3,3.4-17.4,6.3-22.3,6.3s-15-2.8-22.3-6.3c-14.5-6.9-21.2-16.8-21.9-32.4c-0.4-8.6,1.3-25.2,3.7-35.4   c3.3-14.4,18.3-52.1,24.8-62.7c0.5-0.8,3.7-5.7,6.9-10.9c7.1-11.1,7.4-9.8-5.8-23.9c-21.6-23.1-45.4-38.9-72.9-48.7   c-16.5-5.9-47.8-12.5-59.1-12.5C201.9,23.3,199.9,24.7,198.5,26.7z" fill="#292929" style=""></path></g><desc>Created with Snap</desc><defs></defs></g><g><g transform="matrix(1,0,0,-1,0,0)"><path d="M658 576Q681 576 696 560Q712 544 712 522L712 33Q712 18 701 7Q690 -4 675 -4Q660 -4 649 7Q638 18 638 33L638 498L448 30Q442 15 428 5Q414 -4 396 -4Q378 -4 364 5Q350 14 343 30L154 498L154 33Q154 18 143 7Q132 -4 116 -4Q101 -4 90 7Q79 18 79 33L79 522Q79 544 94 560Q110 576 133 576L160 576Q176 576 189 566Q203 556 210 542L396 78L582 542Q588 556 601 566Q615 576 632 576L658 576ZM1017 61Q1089 61 1152 139L1152 385Q1152 400 1162 411Q1173 422 1189 422Q1204 422 1215 411Q1226 401 1226 385L1226 34Q1226 18 1215 7Q1205 -4 1189 -4Q1174 -4 1163 7Q1152 18 1152 34L1152 67Q1119 33 1095 19Q1049 -8 1006 -8Q964 -8 936 5Q909 18 891 39Q853 84 853 152L853 385Q853 400 863 411Q874 422 890 422Q905 422 916 411Q927 401 927 385L927 161Q927 115 948 88Q969 61 1017 61ZM1488 61Q1579 61 1578 118Q1578 136 1560 146Q1542 156 1515 163Q1488 170 1456 178Q1424 186 1396 200Q1368 214 1350 236Q1332 259 1332 292Q1332 325 1342 348Q1352 372 1372 389Q1415 426 1492 426Q1554 426 1611 406Q1622 402 1628 392Q1635 383 1635 372Q1635 362 1625 352Q1616 342 1607 342Q1598 342 1585 346Q1546 358 1499 358Q1452 358 1428 342Q1404 326 1404 302Q1404 279 1422 268Q1440 258 1467 250Q1495 242 1527 235Q1560 228 1587 214Q1651 181 1651 113Q1651 60 1611 28Q1569 -8 1492 -8Q1410 -8 1344 29Q1330 39 1329 53Q1329 68 1338 78Q1348 89 1358 89Q1368 89 1384 82Q1431 61 1488 61ZM1899 58Q1921 58 1930 61Q1940 65 1951 65Q1962 65 1971 56Q1980 48 1980 31Q1980 15 1964 8Q1929 -8 1904 -8Q1879 -8 1858 -6Q1838 -3 1819 8Q1774 34 1774 100L1774 354L1716 354Q1701 354 1700 370Q1700 377 1708 383L1819 492Q1826 499 1833 499Q1840 500 1844 495Q1848 490 1848 483L1848 418L1941 418Q1955 418 1964 409Q1973 400 1973 386Q1973 372 1964 363Q1955 354 1941 354L1848 354L1848 106Q1848 75 1867 64Q1877 58 1899 58ZM2111 182Q2118 127 2153 94Q2189 62 2251 62Q2314 62 2358 82Q2372 89 2383 89Q2394 90 2403 81Q2413 72 2413 61Q2413 39 2395 30Q2378 21 2364 14Q2350 7 2334 2Q2297 -8 2248 -8Q2147 -8 2091 48Q2036 105 2036 209Q2036 299 2083 359Q2136 426 2232 426Q2324 426 2377 364Q2427 306 2427 219Q2427 204 2416 193Q2406 182 2390 182L2111 182ZM2232 363Q2159 363 2126 298Q2114 275 2111 243L2353 243Q2350 301 2310 335Q2278 363 2232 363ZM2601 384L2601 349Q2659 426 2730 426L2734 426Q2749 426 2759 415Q2770 405 2770 389Q2770 373 2759 363Q2748 354 2732 354L2728 354Q2687 354 2655 334Q2623 314 2601 282L2601 33Q2601 18 2590 7Q2579 -4 2564 -4Q2549 -4 2538 7Q2527 18 2527 33L2527 384Q2527 399 2537 410Q2548 422 2564 422Q2579 422 2590 411Q2601 400 2601 384ZM3431 74Q3447 74 3457 63Q3468 53 3468 37Q3468 22 3457 11Q3447 0 3431 0L3140 0Q3118 0 3103 15Q3088 30 3088 52L3088 538Q3088 553 3099 564Q3110 576 3125 576Q3140 576 3151 565Q3163 554 3163 538L3163 74L3431 74ZM3729 426Q3824 426 3882 366Q3940 305 3938 209Q3938 112 3882 52Q3824 -8 3729 -8Q3633 -8 3577 52Q3519 112 3519 209Q3519 307 3577 366Q3633 426 3729 426ZM3637 93Q3657 76 3681 68Q3706 60 3729 60Q3752 60 3776 68Q3800 76 3820 94Q3864 134 3864 210Q3864 284 3820 325Q3783 359 3729 358Q3640 358 3606 278Q3594 249 3594 209Q3594 169 3606 140Q3618 111 3637 93ZM4355 364L4355 384Q4355 399 4365 410Q4376 422 4391 422Q4406 422 4417 411Q4429 400 4429 384L4429 18Q4429 -86 4379 -142Q4329 -197 4237 -197Q4139 -197 4061 -154Q4047 -145 4047 -129Q4047 -113 4056 -103Q4066 -92 4076 -92Q4086 -92 4094 -95Q4156 -126 4229 -126Q4355 -126 4355 7L4355 62Q4297 0 4215 0Q4137 0 4081 53Q4016 113 4016 213Q4016 314 4081 374Q4137 427 4217 426Q4297 426 4355 364ZM4355 129L4355 298Q4332 322 4302 340Q4273 358 4237 358Q4201 358 4175 349Q4150 340 4131 322Q4091 284 4091 213Q4091 107 4175 77Q4201 68 4237 68Q4297 68 4355 129ZM4742 426Q4837 426 4895 366Q4953 305 4951 209Q4951 112 4895 52Q4837 -8 4742 -8Q4646 -8 4590 52Q4532 112 4532 209Q4532 307 4590 366Q4646 426 4742 426ZM4650 93Q4670 76 4694 68Q4719 60 4742 60Q4765 60 4789 68Q4813 76 4833 94Q4877 134 4877 210Q4877 284 4833 325Q4796 359 4742 358Q4653 358 4619 278Q4607 249 4607 209Q4607 169 4619 140Q4631 111 4650 93Z" fill="#292929" style=""></path></g></g></g></svg>